HIERARCHY
ROOT Hips
{
	OFFSET 0.000000 0.000000 0.000000
	CHANNELS 6 Xposition Yposition Zposition Zrotation Yrotation Xrotation 
	JOINT LHipJoint
	{
		OFFSET 0.000000 0.000000 0.000000
		CHANNELS 3 Zrotation Yrotation Xrotation
		JOINT LeftUpLeg
		{
			OFFSET 1.363060 -1.794630 0.839290
			CHANNELS 3 Zrotation Yrotation Xrotation
			JOINT LeftLeg
			{
				OFFSET 2.448110 -6.726130 0.000000
				CHANNELS 3 Zrotation Yrotation Xrotation
				JOINT LeftFoot
				{
					OFFSET 2.562200 -7.039590 0.000000
					CHANNELS 3 Zrotation Yrotation Xrotation
					JOINT LeftToeBase
					{
						OFFSET 0.157640 -0.433110 2.322550
						CHANNELS 3 Zrotation Yrotation Xrotation
						End Site
						{
							OFFSET 0.000000 0.000000 0.000000
						}
					}
				}
			}
		}
	}
	JOINT RHipJoint
	{
		OFFSET 0.000000 0.000000 0.000000
		CHANNELS 3 Zrotation Yrotation Xrotation
		JOINT RightUpLeg
		{
			OFFSET -1.305520 -1.794630 0.839290
			CHANNELS 3 Zrotation Yrotation Xrotation
			JOINT RightLeg
			{
				OFFSET -2.542530 -6.985550 0.000000
				CHANNELS 3 Zrotation Yrotation Xrotation
				JOINT RightFoot
				{
					OFFSET -2.568260 -7.056230 0.000000
					CHANNELS 3 Zrotation Yrotation Xrotation
					JOINT RightToeBase
					{
						OFFSET -0.164730 -0.452590 2.363150
						CHANNELS 3 Zrotation Yrotation Xrotation
						End Site
						{
							OFFSET 0.000000 0.000000 0.000000
						}
					}
				}
			}
		}
	}
}
MOTION
Frames: 14
Frame Time: 0.008333
3.071394 16.463356 0.169983 31.546268 83.487230 37.076691 -8.579617 0.596735 2.916510 -17.704791 -1.069665 -38.335957 -1.773051 0.964023 33.933472 1.432906 7.360664 -6.872329 0.251100 -0.000000 -11.938100 12.494917 -5.197150 -0.468379 -2.171717 -13.008532 -0.562320 -0.401870 -3.670428 47.359654 -0.698666 10.408846 26.183700 6.110600 0.000000 -78.865600
3.218343 16.410558 0.167340 33.315908 83.272596 38.627652 -8.450709 0.629968 2.717717 -18.301938 -0.980726 -38.402545 -1.706104 1.097109 35.942288 1.507132 7.579015 -7.875492 0.081700 -0.000000 -11.120600 12.775915 -5.009827 -0.631782 -3.001508 -13.375501 -2.096558 -0.602956 -3.846381 50.952582 -0.901128 8.924736 26.661034 5.466600 0.000000 -75.351700
3.360426 16.356651 0.162647 34.805343 83.029866 39.870438 -8.338121 0.663094 2.504207 -18.879908 -0.846377 -38.351813 -1.655304 1.219338 37.822774 1.587772 7.793065 -9.050301 -0.125700 0.000000 -10.410000 13.023696 -4.802740 -0.811634 -3.762650 -13.673792 -3.621519 -0.811409 -4.040588 54.539104 -1.105968 6.936201 26.661563 4.472500 0.000000 -71.830200
3.498355 16.302792 0.156099 36.033376 82.765114 40.829491 -8.242371 0.697228 2.279503 -19.435205 -0.666957 -38.188011 -1.620065 1.331044 39.558071 1.673103 8.002016 -10.348540 -0.364600 0.000001 -9.829700 13.241074 -4.582994 -1.000295 -4.450760 -13.897759 -5.138351 -1.031468 -4.252668 58.079021 -1.312105 4.536443 26.146951 3.212600 -0.000000 -68.359400
3.632890 16.250153 0.148107 37.051260 82.484430 41.564307 -8.159733 0.734063 2.048269 -19.969528 -0.450844 -37.919215 -1.598943 1.432445 41.134457 1.761836 8.208413 -11.716689 -0.626800 0.000000 -9.393400 13.434629 -4.356133 -1.190418 -5.069035 -14.047178 -6.651348 -1.265441 -4.480427 61.532281 -1.516984 1.868315 25.104089 1.815300 -0.000000 -64.921400
3.764647 16.199993 0.138986 37.886887 82.194395 42.110621 -8.089124 0.774382 1.815131 -20.479281 -0.204839 -37.559614 -1.589509 1.524202 42.545984 1.852089 8.411965 -13.102321 -0.903300 0.000000 -9.099700 13.607308 -4.127176 -1.374654 -5.613290 -14.119576 -8.164280 -1.513302 -4.719567 64.857384 -1.716150 -0.900506 23.551128 0.427600 0.000000 -61.452800
3.894312 16.153423 0.129112 38.587540 81.902818 42.525699 -8.027022 0.818915 1.585199 -20.963912 0.057661 -37.124677 -1.589169 1.606752 43.789888 1.942410 8.614491 -14.457831 -1.185200 0.000000 -8.932900 13.763619 -3.899651 -1.546776 -6.084325 -14.117274 -9.681725 -1.772305 -4.964571 68.014886 -1.903271 -3.594888 21.539922 -0.809100 -0.000001 -57.881900
4.022357 16.111496 0.118935 39.200533 81.617449 42.864858 -7.970147 0.868112 1.362976 -21.423266 0.322776 -36.628351 -1.595526 1.680526 44.866053 2.031357 8.817163 -15.743759 -1.464200 0.000000 -8.863800 13.906896 -3.675675 -1.701955 -6.483716 -14.045032 -11.206152 -2.037077 -5.208967 70.967711 -2.070599 -6.056541 19.152689 -1.785100 0.000000 -54.157299
4.149253 16.075049 0.108831 39.775770 81.347177 43.186204 -7.914733 0.922079 1.152391 -21.858269 0.574393 -36.082294 -1.606630 1.745859 45.776554 2.117730 9.020453 -16.931309 -1.733300 -0.000000 -8.855400 14.040035 -3.455957 -1.837167 -6.815017 -13.910993 -12.738254 -2.299937 -5.446198 73.683050 -2.209440 -8.158108 16.491779 -2.437700 -0.000001 -50.245000
4.275325 16.044737 0.099007 40.335304 81.101720 43.517971 -7.860724 0.979982 0.956356 -22.263371 0.802737 -35.498120 -1.620973 1.803176 46.527618 2.199930 9.220509 -18.004238 -1.987300 0.000000 -8.869100 14.161870 -3.241183 -1.950278 -7.074849 -13.721904 -14.276084 -2.551714 -5.669519 76.133840 -2.311605 -9.815783 13.671331 -2.757399 0.000000 -46.171600
4.400832 16.021045 0.089763 40.919131 80.888962 43.903983 -7.805540 1.041595 0.776618 -22.639056 0.996510 -34.878219 -1.638162 1.852535 47.120681 2.277006 9.414430 -18.955053 -2.222400 0.000000 -8.871699 14.273160 -3.030243 -2.041657 -7.268629 -13.489797 -15.813733 -2.782649 -5.873614 78.297683 -2.369750 -10.981864 10.803517 -2.777900 0.000001 -41.984201
4.525971 16.004235 0.081067 41.533499 80.717206 44.352272 -7.750962 1.105768 0.613619 -22.978682 1.153365 -34.225718 -1.658184 1.894214 47.561761 2.347501 9.594345 -19.786948 -2.436000 -0.000000 -8.838900 14.370608 -2.822768 -2.112261 -7.393125 -13.223765 -17.343572 -2.983493 -6.053686 80.158509 -2.379230 -11.649072 7.993027 -2.566600 0.000000 -37.785400
4.650925 15.994435 0.072942 42.187557 80.591519 44.871185 -7.698031 1.171725 0.466626 -23.277736 1.273504 -33.536650 -1.681864 1.928177 47.852246 2.410279 9.752355 -20.508372 -2.626499 -0.000000 -8.758100 14.451779 -2.617808 -2.164262 -7.449643 -12.933528 -18.854230 -3.146377 -6.206315 81.703889 -2.338468 -11.838850 5.331449 -2.205000 0.000000 -33.711500
4.775801 15.991615 0.065225 42.878722 80.514886 45.454929 -7.649033 1.238562 0.333848 -23.530588 1.362338 -32.804783 -1.710366 1.954358 47.993030 2.464123 9.879205 -21.131410 -2.792900 -0.000001 -8.628600 14.513512 -2.414739 -2.200078 -7.437966 -12.626164 -20.332992 -3.265644 -6.329056 82.926446 -2.249742 -11.598505 2.893057 -1.774701 0.000000 -29.931400
